<svg xmlns="http://www.w3.org/2000/svg" viewBox="0 0 400 100" fill="white">
  <!-- House Icon -->
  <g>
    <!-- House body -->
    <path d="M8 45 L8 85 L62 85 L62 45 L35 20 Z"/>
    <!-- Chimney -->
    <rect x="48" y="25" width="10" height="15"/>
    <!-- Windows - 4 panes -->
    <rect x="20" y="50" width="12" height="12" fill="#1e3a5f"/>
    <rect x="38" y="50" width="12" height="12" fill="#1e3a5f"/>
    <line x1="26" y1="50" x2="26" y2="62" stroke="white" stroke-width="2"/>
    <line x1="20" y1="56" x2="32" y2="56" stroke="white" stroke-width="2"/>
    <line x1="44" y1="50" x2="44" y2="62" stroke="white" stroke-width="2"/>
    <line x1="38" y1="56" x2="50" y2="56" stroke="white" stroke-width="2"/>
  </g>

  <!-- Decorative lines - top -->
  <line x1="75" y1="28" x2="392" y2="28" stroke="white" stroke-width="3"/>
  <line x1="75" y1="35" x2="392" y2="35" stroke="white" stroke-width="2"/>

  <!-- Decorative lines - bottom -->
  <line x1="75" y1="68" x2="392" y2="68" stroke="white" stroke-width="3"/>
  <line x1="75" y1="75" x2="392" y2="75" stroke="white" stroke-width="2"/>

  <!-- HOMESTEAD text -->
  <text x="80" y="58" font-family="'Bebas Neue', 'Impact', 'Arial Black', sans-serif" font-size="30" font-weight="bold" fill="white" letter-spacing="2">HOMESTEAD</text>

  <!-- SUPPLY text -->
  <text x="245" y="58" font-family="'Bebas Neue', 'Impact', 'Arial Black', sans-serif" font-size="30" font-weight="bold" fill="white" letter-spacing="2">SUPPLY</text>

  <!-- & MORE text -->
  <text x="300" y="92" font-family="Georgia, serif" font-size="16" fill="white" letter-spacing="1">&amp; MORE</text>
</svg>
