<svg xmlns="http://www.w3.org/2000/svg" viewBox="0 0 400 100">
  <!-- House Icon -->
  <g fill="#1e3a5f">
    <!-- House body -->
    <path d="M10 50 L40 25 L70 50 L70 85 L10 85 Z"/>
    <!-- Roof -->
    <path d="M5 52 L40 20 L75 52 L70 52 L40 27 L10 52 Z"/>
    <!-- Window -->
    <rect x="22" y="55" width="12" height="12" fill="white"/>
    <rect x="46" y="55" width="12" height="12" fill="white"/>
    <line x1="28" y1="55" x2="28" y2="67" stroke="#1e3a5f" stroke-width="2"/>
    <line x1="22" y1="61" x2="34" y2="61" stroke="#1e3a5f" stroke-width="2"/>
    <line x1="52" y1="55" x2="52" y2="67" stroke="#1e3a5f" stroke-width="2"/>
    <line x1="46" y1="61" x2="58" y2="61" stroke="#1e3a5f" stroke-width="2"/>
  </g>

  <!-- Decorative lines -->
  <line x1="85" y1="35" x2="390" y2="35" stroke="#1e3a5f" stroke-width="3"/>
  <line x1="85" y1="42" x2="390" y2="42" stroke="#1e3a5f" stroke-width="2"/>
  <line x1="85" y1="75" x2="390" y2="75" stroke="#1e3a5f" stroke-width="3"/>
  <line x1="85" y1="82" x2="390" y2="82" stroke="#1e3a5f" stroke-width="2"/>

  <!-- Text -->
  <text x="90" y="68" font-family="Georgia, serif" font-size="32" font-weight="bold" fill="#1e3a5f">HOMESTEAD SUPPLY</text>
  <text x="280" y="95" font-family="Georgia, serif" font-size="14" fill="#1e3a5f">&amp; MORE</text>
</svg>
