<svg xmlns="http://www.w3.org/2000/svg" viewBox="0 0 320 60">
  <!-- House Icon -->
  <g fill="white">
    <!-- House body -->
    <path d="M5 30 L25 12 L45 30 L45 55 L5 55 Z"/>
    <!-- Roof peak -->
    <path d="M2 31 L25 10 L48 31 L44 31 L25 14 L6 31 Z"/>
    <!-- Windows -->
    <rect x="12" y="35" width="8" height="8" fill="#1e3a5f"/>
    <rect x="30" y="35" width="8" height="8" fill="#1e3a5f"/>
    <!-- Window crosses -->
    <line x1="16" y1="35" x2="16" y2="43" stroke="white" stroke-width="1.5"/>
    <line x1="12" y1="39" x2="20" y2="39" stroke="white" stroke-width="1.5"/>
    <line x1="34" y1="35" x2="34" y2="43" stroke="white" stroke-width="1.5"/>
    <line x1="30" y1="39" x2="38" y2="39" stroke="white" stroke-width="1.5"/>
  </g>

  <!-- Decorative lines -->
  <line x1="55" y1="18" x2="315" y2="18" stroke="white" stroke-width="2"/>
  <line x1="55" y1="23" x2="315" y2="23" stroke="white" stroke-width="1.5"/>
  <line x1="55" y1="48" x2="315" y2="48" stroke="white" stroke-width="2"/>
  <line x1="55" y1="53" x2="315" y2="53" stroke="white" stroke-width="1.5"/>

  <!-- Text -->
  <text x="58" y="42" font-family="Georgia, serif" font-size="22" font-weight="bold" fill="white">HOMESTEAD SUPPLY</text>
  <text x="245" y="42" font-family="Georgia, serif" font-size="12" fill="white">&amp; MORE</text>
</svg>
